<svg xmlns="http://www.w3.org/2000/svg" id="Camada_2" version="1.1" viewBox="0 0 653.7 109"><defs><clipPath id="clippath"><path d="M0 1.3h82.5v82.5H0z" style="fill:none"/></clipPath><style>.st1{fill:#e9e9e7}</style></defs><g id="Logo"><g id="v1"><g id="InkyDigital"><path d="M115.8 2h15.9v83.2h-15.9zM198.3 85.2h-15.7V50.9c0-11.1-4.8-15.9-13.5-15.9s-17.7 9.2-17.7 9.2v41h-15.9V20.5H150l1.3 8.6c5.3-6.1 12.4-9.2 21-9.2 15.1 0 25.9 11.5 25.9 27.1v38.3ZM217 72.9v12.3h-15.9V0H217v50.6l21.1-30.1H255L232.8 51l24 34.2h-17.3L224 63.1l-7.1 9.8ZM291.7 63.4l15.6-42.9h16.5L291.6 109h-16.5l8.5-22.9-23.9-65.7h16.5l15.6 42.9ZM355 85.2V2h27.5c25.9 0 42 17.3 42 41.6s-16.1 41.6-42 41.6zm15.9-14.5h11.6c16.8 0 25.5-10.6 25.5-27.2s-8.7-27-25.5-27h-11.6zM428.1 20.5H444v64.7h-15.9zM513.8 82.8c0 16.1-10.8 26.2-28.7 26.2h-33.7V93.8h33c10 0 13.5-3.3 13.5-12.2v-3.7c-5.3 5.6-12.3 8.3-19.6 8.3-17.3 0-31-13.9-31-33.2s13.7-33.3 31-33.3 14.4 2.9 19.7 8.5l1.2-7.8h14.5v62.4ZM480.1 35c-9.5 0-17.3 7-17.3 18.1s7.8 18 17.3 18 17.7-7 17.7-18S489.9 35 480.1 35M517.4 20.5h15.9v64.7h-15.9zM536.2 35.7V20.5h4l1.3-14.1H556v14.1h10.8v15.2H556v24.7c0 7 2.4 9.7 8.8 9.7h2.6v15.2h-4.8c-14.5 0-22.6-8.8-22.6-24.8V35.8h-4Z" class="st1"/><path d="M618.7 20.5h15.9v64.7h-14.5l-1.2-7.4c-5.4 5.6-12.7 8.5-20.2 8.5-17.7 0-31.7-13.9-31.7-33.2s14-33.3 31.7-33.3 14.7 2.9 20.1 8.3v-7.7ZM600.4 35c-9.9 0-18 7-18 18.1s8.1 18 18 18 18.4-7 18.4-18S610.6 35 600.4 35M637.9 0h15.9v85.2h-15.9zM428.1 2H444v15.6h-15.9zM517.4 2h15.9v15.6h-15.9z" class="st1"/></g><path d="M69.4 42.6c0-19.6 22-29.3 22-29.3.7-.9.7-2.2 0-3.2-.5-.6-1.2-1-2-1s-.7 0-1.1.2L62.6 21.1 74.4-4.5c.5-1.1.2-2.3-.7-3.1s-2.2-.8-3.2 0c0 0-9.8 22-29.3 22s-29.3-22-29.3-22c-.9-.7-2.2-.7-3.2 0-.6.5-1 1.2-1 2s0 .7.2 1.1l11.8 25.7L-5.8 9.4c-.3-.2-.7-.2-1.1-.2-.8 0-1.5.3-2 1-.7.9-.8 2.2 0 3.2 0 0 22 9.8 22 29.3S-8.9 72-8.9 72c-.7.9-.7 2.2 0 3.2.7.9 2 1.2 3.1.7l25.6-11.8L8 89.8c-.2.3-.2.7-.2 1.1 0 .8.3 1.5 1 2 .9.7 2.2.8 3.2 0 0 0 9.8-22 29.3-22s29.3 22 29.3 22c.9.7 2.2.7 3.2 0 .9-.7 1.2-2 .7-3.1L62.7 64.2 88.3 76c1.1.5 2.3.2 3.1-.7s.8-2.2 0-3.2c0 0-22-9.8-22-29.3ZM53.6 53.3c0 .5-.4 1-1 1H29.8c-.5 0-1-.4-1-1V30.5c0-.5.4-1 1-1h22.8c.5 0 1 .4 1 1z" class="st1" style="clip-path:url(#clippath)"/></g></g></svg>